<?xml version="1.0" encoding="utf-8"?>
<!-- Generator: Adobe Illustrator 25.3.1, SVG Export Plug-In . SVG Version: 6.00 Build 0)  -->
<svg version="1.1" id="Layer_1" xmlns="http://www.w3.org/2000/svg" xmlns:xlink="http://www.w3.org/1999/xlink" x="0px" y="0px"
	 viewBox="0 0 16 16" style="enable-background:new 0 0 16 16;" xml:space="preserve">
<style type="text/css">
	.st0{fill:#FF9800;}
	.st1{fill:#FFFFFF;}
</style>
<g>
	<path class="st0" d="M8,16c4.4,0,8-3.6,8-8s-3.6-8-8-8S0,3.6,0,8S3.6,16,8,16z"/>
	<g>
		<g>
			<g>
				<path class="st1" d="M11.4,5.8V3.7H9.3v1.1v1.1L11.4,5.8L11.4,5.8z M9.9,4.3h0.8v0.8H9.9V4.3z"/>
				<g>
					<polygon class="st1" points="8.4,4.4 9.2,4.4 9.2,5 8.8,5 7.9,7.2 6.3,7.2 6.3,6.6 7.5,6.6 					"/>
				</g>
			</g>
			<g>
				<path class="st1" d="M11.4,10.1v2.1H9.3v-1.1V10C9.2,10.1,11.4,10.1,11.4,10.1z M9.9,11.6h0.8v-0.8H9.9V11.6z"/>
				<g>
					<polygon class="st1" points="8.4,11.5 9.2,11.5 9.2,10.9 8.8,10.9 7.9,8.7 6.3,8.7 6.3,9.3 7.5,9.3 					"/>
				</g>
			</g>
			<g>
				<path class="st1" d="M12.4,9V6.9h-2.1V8v1H12.4z M11,7.5h0.8v0.8H11V7.5z"/>
				<g>
					<rect x="6.3" y="7.7" class="st1" width="4" height="0.6"/>
				</g>
			</g>
		</g>
		<path class="st1" d="M7,9.7H4.1V6.2h3l0.2-0.6H3.5v4.7h3.7L7,9.7z"/>
	</g>
</g>
</svg>
