<?xml version="1.0" encoding="UTF-8"?>
<!-- Generator: Adobe Illustrator 24.3.0, SVG Export Plug-In . SVG Version: 6.00 Build 0)  -->
<svg xmlns="http://www.w3.org/2000/svg" xmlns:xlink="http://www.w3.org/1999/xlink" version="1.1" id="icon" x="0px" y="0px" viewBox="0 0 64 64" style="enable-background:new 0 0 64 64;" xml:space="preserve">
<style type="text/css">
	.st0{fill:#DD7A01;}
	.st1{fill:#FFFFFF;}
</style>
<switch>
	
	<g extraneous="self">
		<title>integration-day3</title>
		<g>
			<circle class="st0" cx="32" cy="32" r="28"></circle>
			<g>
				<path class="st1" d="M37.3,22.8c-0.7-0.4-1.5-0.2-1.9,0.5c-0.4,0.7-0.2,1.5,0.5,1.9c0.2,0.1,0.4,0.2,0.7,0.2      c0.5,0,0.9-0.2,1.2-0.7C38.2,24,38,23.1,37.3,22.8z"></path>
				<path class="st1" d="M22.7,33.4c0.8,0,1.4-0.6,1.4-1.4c0-0.8-0.6-1.4-1.4-1.4c-0.8,0-1.4,0.6-1.4,1.4      C21.3,32.8,21.9,33.4,22.7,33.4L22.7,33.4z"></path>
				<path class="st1" d="M40.1,28.7c0.2,0,0.5-0.1,0.7-0.2c0.7-0.4,0.9-1.2,0.5-1.9c-0.4-0.7-1.2-0.9-1.9-0.5      c-0.7,0.4-0.9,1.2-0.5,1.9C39.1,28.5,39.6,28.7,40.1,28.7z"></path>
				<path class="st1" d="M23.2,28.6c0.2,0.1,0.4,0.2,0.7,0.2c0.5,0,0.9-0.2,1.2-0.7h0c0.4-0.7,0.1-1.5-0.5-1.9      c-0.7-0.4-1.5-0.2-1.9,0.5C22.4,27.4,22.6,28.2,23.2,28.6z"></path>
				<path class="st1" d="M40.7,35.5c-0.7-0.4-1.5-0.2-1.9,0.5c-0.4,0.7-0.2,1.5,0.5,1.9c0.2,0.1,0.4,0.2,0.7,0.2      c0.5,0,0.9-0.2,1.2-0.7C41.6,36.7,41.4,35.8,40.7,35.5z"></path>
				<path class="st1" d="M41.3,30.6c-0.8,0-1.4,0.6-1.4,1.4c0,0.7,0.6,1.4,1.4,1.4c0.8,0,1.4-0.6,1.4-1.4      C42.7,31.2,42.1,30.6,41.3,30.6z"></path>
				<path class="st1" d="M32,21.3C32,21.3,32,21.3,32,21.3C32,21.3,32,21.3,32,21.3C32,21.3,32,21.3,32,21.3c-0.8,0-1.4,0.6-1.4,1.4      c0,0.8,0.6,1.4,1.4,1.4c0,0,0,0,0,0c0,0,0,0,0,0c0,0,0,0,0,0c0.8,0,1.4-0.6,1.4-1.4C33.4,21.9,32.8,21.3,32,21.3z"></path>
				<path class="st1" d="M26.6,22.8c-0.7,0.4-0.9,1.2-0.5,1.9c0.3,0.4,0.7,0.7,1.2,0.7c0.2,0,0.5-0.1,0.7-0.2      c0.7-0.4,0.9-1.2,0.5-1.9C28.1,22.6,27.3,22.4,26.6,22.8z"></path>
				<path class="st1" d="M23.3,35.5c-0.7,0.4-0.9,1.2-0.5,1.9C23,37.8,23.5,38,24,38c0.2,0,0.5-0.1,0.7-0.2c0.7-0.4,0.9-1.2,0.5-1.9      C24.8,35.3,23.9,35.1,23.3,35.5z"></path>
				<path class="st1" d="M32,16.7c-8.4,0-15.3,6.9-15.3,15.3S23.6,47.3,32,47.3S47.3,40.4,47.3,32S40.4,16.7,32,16.7z M39.8,42.6      c-0.4-2.5-1.9-4.6-4.1-5.8C37.1,35.7,38,34,38,32c0-3.3-2.7-6-6-6s-6,2.7-6,6c0,1.9,0.9,3.7,2.3,4.8c-2.2,1.1-3.7,3.3-4.1,5.8      c-3.2-2.4-5.3-6.2-5.3-10.6c0-7.2,5.9-13.1,13.1-13.1S45.1,24.8,45.1,32C45.1,36.3,43,40.2,39.8,42.6z M32,45.1      c-2,0-4-0.5-5.7-1.3v-0.1c0-3.1,2.6-5.7,5.7-5.7s5.7,2.6,5.7,5.7v0.1C36,44.7,34,45.1,32,45.1z M28.2,32c0-2.1,1.7-3.8,3.8-3.8      s3.8,1.7,3.8,3.8s-1.7,3.8-3.8,3.8S28.2,34.1,28.2,32z"></path>
			</g>
		</g>
	</g>
</switch>

</svg>
